# xmcd CD database file
# Copyright (C) 1993-1998 Ti Kan
# 
# Track frame offsets:
#     150
#     24297
#     42255
#     58560
# 
# Disc length: 1207 seconds
# 
# Revision: 1
# Processed by: cddbd v1.4b41PL1 Copyright (c) Steve Scherf et al.
# Submitted via: DiscPlay 4.0.4
# 
DISCID=2704b504
DTITLE=Muddy Waters - Mannish Boy
DYEAR=1900
DGENRE=
TTITLE0=Mannish Boy
TTITLE1=I'm Your Hoochie Coochie Man
TTITLE2=The Blue Had A Baby And They Named It Rock And Roll
TTITLE3=Little Girl
EXTD=
EXTT0=
EXTT1=
EXTT2=
EXTT3=
PLAYORDER=
